<?xml version="1.0" encoding="utf-8"?>
<svg xmlns="http://www.w3.org/2000/svg" viewBox="0 0 500 500">
  <path fill="#6e11b0" d="M 500 79.382 L 500 90.382 C 498.796 90.868 497.536 91.204 496.25 91.382 L 496 91.632 C 492 92.132 487.75 91.632 483.5 90.882 L 468 88.132 C 464.021 87.617 460.012 87.366 456 87.382 L 451 87.382 C 448.063 87.638 445.141 88.055 442.25 88.632 L 434.5 90.382 L 427 91.632 C 420.11 92.875 413.032 92.619 406.25 90.882 L 400.75 89.632 C 396.51 88.725 392.104 88.985 388 90.382 L 382.5 92.132 C 379 93.382 375.25 94.632 371.5 94.382 C 367.25 94.382 363 92.632 359 90.882 C 356.75 89.882 354.25 88.632 351.75 88.132 C 349.018 87.204 346.102 86.947 343.25 87.382 C 341.602 87.771 340.007 88.359 338.5 89.132 L 334 91.132 C 326.368 94.406 317.762 94.586 310 91.632 L 309 91.132 C 306.25 90.132 303.75 88.632 301 87.882 L 294.09 86.96 C 287.901 86.765 290.75 86.382 286 86.882 L 284.955 87.061 L 267.037 89.565 C 261.435 90.373 255.181 94.304 250 93.034 L 251.286 92.367 C 251.015 95.871 228.718 88.74 223.468 88.49 L 214.25 86.882 L 214 86.882 C 208.981 86.299 203.897 86.638 199 87.882 C 196.25 88.632 193.75 90.132 191 91.132 L 190 91.632 C 182.238 94.586 173.632 94.406 166 91.132 L 161.5 89.132 C 159.993 88.359 158.398 87.771 156.75 87.382 L 156 87.132 C 153.5 86.882 150.75 87.132 148.25 88.132 C 145.75 88.632 143.5 89.882 141 90.882 C 137 92.632 132.75 94.382 128.5 94.382 C 124.75 94.632 121 93.382 117.5 92.132 L 112 90.382 C 107.896 88.985 103.49 88.725 99.25 89.632 L 93.75 90.882 C 91.762 91.354 89.761 91.77 87.75 92.132 C 82.75 92.882 77.75 92.382 73 91.632 L 65.502 90.382 L 57.752 88.632 C 54.862 88.055 51.932 87.638 49.002 87.382 L 44.002 87.382 C 39.992 87.366 35.982 87.617 32.002 88.132 L 16.502 90.882 C 12.252 91.632 8.002 92.382 4.002 91.632 L 3.752 91.632 C 2.452 91.374 1.192 90.954 0.002 90.382 L 0.002 79.382 L 500 79.382 Z"/>
</svg>